<svg width="117" height="161" viewBox="0 0 117 161" fill="none" xmlns="http://www.w3.org/2000/svg">
<path d="M72.6816 12.4704H91.9689C97.0035 12.4704 101.045 16.5322 101.045 21.5916V97.9815" stroke="#24B58F" stroke-width="2" stroke-linecap="round" stroke-linejoin="round"/>
<path d="M54.9548 144.3H8.86386C4.96386 144.3 1.77295 141.093 1.77295 137.174V21.5916C1.77295 16.5322 5.81477 12.4704 10.8493 12.4704H30.1366" stroke="#24B58F" stroke-width="2" stroke-linecap="round" stroke-linejoin="round"/>
<path d="M26.5908 51.663H76.2272" stroke="#24B58F" stroke-width="2" stroke-linecap="round" stroke-linejoin="round"/>
<path d="M26.5908 105.107H69.1363" stroke="#24B58F" stroke-width="2" stroke-linecap="round" stroke-linejoin="round"/>
<path d="M26.5908 87.2926H76.2272" stroke="#24B58F" stroke-width="2" stroke-linecap="round" stroke-linejoin="round"/>
<path d="M26.5908 69.4778H76.2272" stroke="#24B58F" stroke-width="2" stroke-linecap="round" stroke-linejoin="round"/>
<path d="M92.1817 158.552C104.909 158.552 115.227 148.183 115.227 135.393C115.227 122.602 104.909 112.233 92.1817 112.233C79.454 112.233 69.1362 122.602 69.1362 135.393C69.1362 148.183 79.454 158.552 92.1817 158.552Z" stroke="#24B58F" stroke-width="2" stroke-linecap="round" stroke-linejoin="round"/>
<path d="M81.2617 136.604L87.9272 143.231L102.818 128.267" stroke="#24B58F" stroke-width="2" stroke-linecap="round" stroke-linejoin="round"/>
<path d="M72.6817 1.78149H30.1362V23.1593H72.6817V1.78149Z" stroke="#24B58F" stroke-width="2" stroke-linecap="round" stroke-linejoin="round"/>
</svg>
