<svg width="140" height="43" viewBox="0 0 140 43" fill="none" xmlns="http://www.w3.org/2000/svg">
<g clip-path="url(#clip0_266_2192)">
<path opacity="0.4" d="M12.3662 25.0124V37.3752H35.4662C36.4929 37.3752 37.3329 36.5355 37.3329 35.5091V1.91949C37.3329 1.40631 37.1229 0.939791 36.7845 0.601562L12.3662 25.0124Z" fill="white"/>
<path opacity="0.4" d="M12.369 0.0546875H1.86667C0.84 0.0546875 0 0.894428 0 1.92078V35.5104C0 36.0236 0.21 36.4901 0.548333 36.8283L12.3783 25.002L12.369 0.0546875Z" fill="white"/>
<path d="M12.3662 25.0136L36.7845 0.602851C36.4462 0.264623 35.9795 0.0546875 35.4662 0.0546875H12.3662V25.0136Z" fill="url(#paint0_radial_266_2192)"/>
<path d="M0.53418 36.8318C0.872513 37.1701 1.33918 37.38 1.85251 37.38H12.3665L12.3618 25.0078L0.53418 36.8318Z" fill="url(#paint1_radial_266_2192)"/>
<path d="M56.5973 2.30229C56.3453 2.23931 56.0537 2.21831 55.6967 2.21831C54.2733 2.21831 53.5617 2.95076 53.5617 4.43663V5.9225H56.5343V8.11983H53.5617V17.0957H51.051V8.11983H49V5.9225H51.051V4.35266C51.051 1.59084 52.7053 0 55.447 0C55.825 0 56.2007 0.0629806 56.5973 0.167948V2.30229Z" fill="white"/>
<path d="M67.3121 7.3468C68.4624 8.45479 69.0271 9.81704 69.0271 11.4475C69.0271 13.1014 68.4624 14.4799 67.3121 15.6112C66.1804 16.7192 64.7991 17.2837 63.1471 17.2837C61.5138 17.2837 60.1114 16.7192 58.9611 15.6112C57.8108 14.5033 57.2461 13.1224 57.2461 11.4895C57.2461 9.85669 57.8318 8.47579 58.9821 7.3678C60.1324 6.2598 61.5348 5.69531 63.1681 5.69531C64.7804 5.69531 66.1618 6.23881 67.3121 7.3468ZM59.7988 11.4499C59.7988 12.4319 60.1138 13.2693 60.7414 13.9808C61.3691 14.6712 62.1858 15.0281 63.1681 15.0281C64.1528 15.0281 64.9694 14.6922 65.5761 14.0017C66.1828 13.3113 66.4978 12.4739 66.4978 11.4919C66.4978 10.5075 66.1851 9.67242 65.5551 8.98196C64.9484 8.29151 64.1318 7.95561 63.1471 7.95561C62.1648 7.95561 61.3481 8.29151 60.7204 8.98196C60.1114 9.64909 59.7988 10.4655 59.7988 11.4499Z" fill="white"/>
<path d="M72.1812 15.6346C71.0705 14.5266 70.5059 13.1457 70.5059 11.4919C70.5059 9.92201 71.0705 8.56209 72.1812 7.41212C73.2919 6.26214 74.6732 5.69531 76.3252 5.69531C78.8382 5.69531 80.6792 7.05523 81.3489 9.04261L79.2139 10.006C78.7332 8.64607 77.7695 7.95561 76.3462 7.95561C75.4245 7.95561 74.6522 8.29151 74.0012 8.93998C73.3735 9.58844 73.0585 10.4259 73.0585 11.4499C73.0585 12.4949 73.3735 13.3533 74.0012 14.0227C74.6289 14.6922 75.4245 15.0281 76.3672 15.0281C77.7695 15.0281 78.7332 14.3376 79.2559 12.9567L81.4329 13.9201C81.1179 14.8205 80.5112 15.6159 79.6525 16.2854C78.7939 16.9548 77.6855 17.2884 76.3252 17.2884C74.6732 17.2861 73.2919 16.7426 72.1812 15.6346Z" fill="white"/>
<path d="M85.7225 5.92188V12.1779C85.7225 13.8504 86.5391 14.9607 88.1911 14.9607C89.7615 14.9607 90.7648 13.8318 90.7648 12.136V5.92188H93.2568V17.0951H90.8278V15.5882C89.9691 16.7382 88.8398 17.3237 87.4165 17.3237C84.7168 17.3237 83.2305 15.4623 83.2305 12.7844V5.92188H85.7225Z" fill="white"/>
<path d="M95.0742 14.4791L97.0202 13.3898C97.6269 14.5818 98.5066 15.1882 99.6989 15.1882C100.642 15.1882 101.456 14.7077 101.456 13.9543C101.456 13.3058 100.681 12.8043 99.1529 12.4894C97.9186 12.2375 96.9759 11.7989 96.3692 11.1505C95.8466 10.586 95.5736 9.91653 95.5736 9.12111C95.5736 8.11808 95.9726 7.30167 96.7869 6.65087C97.6036 6.0024 98.5462 5.6875 99.6336 5.6875C101.643 5.6875 103.045 6.52491 103.82 8.19739L101.895 9.28439C101.393 8.28136 100.618 7.77752 99.5496 7.77752C98.7749 7.77752 97.9792 8.25804 97.9792 8.86685C97.9792 9.59929 98.6069 9.97484 100.051 10.2897C102.585 10.8542 103.925 12.0695 103.925 13.805C103.925 14.8313 103.526 15.6664 102.753 16.3149C101.981 16.9633 100.954 17.2783 99.6966 17.2783C97.4822 17.2829 95.9329 16.3429 95.0742 14.4791Z" fill="white"/>
<path d="M105.544 14.4791L107.49 13.3898C108.097 14.5818 108.976 15.1882 110.169 15.1882C111.111 15.1882 111.928 14.7077 111.928 13.9543C111.928 13.3058 111.153 12.8043 109.625 12.4894C108.391 12.2375 107.448 11.7989 106.841 11.1505C106.319 10.586 106.046 9.91653 106.046 9.12111C106.046 8.11808 106.445 7.30167 107.259 6.65087C108.073 6.00007 109.016 5.6875 110.106 5.6875C112.115 5.6875 113.517 6.52491 114.292 8.19739L112.367 9.28439C111.865 8.28136 111.09 7.77752 110.022 7.77752C109.247 7.77752 108.451 8.25804 108.451 8.86685C108.451 9.59929 109.079 9.97484 110.523 10.2897C113.055 10.8542 114.394 12.0695 114.394 13.805C114.394 14.8313 113.998 15.6664 113.223 16.3149C112.448 16.9633 111.422 17.2783 110.166 17.2783C107.952 17.2829 106.403 16.3429 105.544 14.4791Z" fill="white"/>
<path d="M118.351 12.243C118.372 13.0804 118.708 13.7708 119.357 14.3353C120.006 14.8788 120.759 15.1517 121.618 15.1517C123.02 15.1517 124.026 14.5662 124.633 13.4163L126.432 14.6082C125.489 16.346 123.669 17.3071 121.66 17.3071C120.006 17.3071 118.603 16.7636 117.474 15.6532C116.363 14.5452 115.799 13.1433 115.799 11.4895C115.799 9.87769 116.342 8.51777 117.411 7.38879C118.48 6.2598 119.819 5.69531 121.429 5.69531C123.125 5.69531 124.465 6.21782 125.426 7.28615C126.39 8.35449 126.87 9.7354 126.87 11.4709C126.87 11.8044 126.849 12.0563 126.828 12.2453H118.351V12.243ZM118.477 10.3582H124.339C124.255 8.78836 123.02 7.82732 121.429 7.82732C119.901 7.82732 118.706 8.83268 118.477 10.3582Z" fill="white"/>
<path d="M129.848 7.46854C130.875 6.29757 132.235 5.70975 133.887 5.70975C134.494 5.70975 135.142 5.85671 135.854 6.16928C136.587 6.46086 137.13 6.90172 137.508 7.5082V0.0625H140V17.0929H137.571V15.3551C137.172 16.0036 136.608 16.4841 135.833 16.799C135.079 17.1116 134.41 17.2585 133.824 17.2585C132.254 17.2585 130.935 16.694 129.888 15.544C128.842 14.3941 128.317 13.0342 128.317 11.4853C128.32 9.98077 128.824 8.64185 129.848 7.46854ZM131.773 8.97541C131.166 9.66586 130.851 10.5033 130.851 11.4853C130.851 12.4673 131.164 13.3047 131.773 13.9952C132.401 14.6647 133.217 15.0005 134.202 15.0005C135.187 15.0005 136.003 14.6647 136.608 13.9952C137.235 13.3047 137.55 12.4673 137.55 11.4853C137.55 10.5009 137.235 9.66586 136.608 8.97541C135.98 8.28496 135.184 7.94906 134.202 7.94906C133.217 7.9514 132.401 8.28496 131.773 8.97541Z" fill="white"/>
<path d="M57.6028 37.1903V34.72C56.7651 36.4159 55.1341 37.3769 53.3538 37.3769C52.2851 37.3769 51.3868 37.104 50.6751 36.5605C49.9634 35.996 49.6064 35.2216 49.6064 34.1975C49.6064 33.1292 50.0451 32.3361 50.9038 31.8113C51.7834 31.2678 52.8078 30.9949 53.9814 30.9949H57.6028V30.2204C57.6028 27.9601 56.3894 26.6002 54.1914 26.6002C52.4764 26.6002 51.2398 27.3537 50.4651 28.8815L49.7324 28.464C50.4861 26.8521 52.0144 25.8281 54.1704 25.8281C56.7651 25.8281 58.4404 27.398 58.4404 30.1598V37.1903H57.6028ZM57.6238 31.7506H54.0234C53.0808 31.7506 52.2641 31.9606 51.5314 32.3571C50.8198 32.7537 50.4651 33.3601 50.4651 34.1765C50.4651 35.7464 51.6784 36.6048 53.3748 36.6048C54.5671 36.6048 55.5728 36.2502 56.3894 35.5155C57.2061 34.783 57.6238 33.801 57.6238 32.6067V31.7506Z" fill="white"/>
<path d="M62.2389 26.6655C63.0135 26.101 63.8722 25.8281 64.8125 25.8281C66.5929 25.8281 67.8482 26.6026 68.5389 28.1724L67.8062 28.5689C67.2206 27.251 66.2149 26.6026 64.7705 26.6026C64.0799 26.6026 63.4312 26.8125 62.8245 27.23C62.2179 27.6476 61.9239 28.1934 61.9239 28.8419C61.9239 30.1808 62.7615 30.7033 64.8335 31.1232C67.4912 31.6876 68.6649 32.5251 68.6649 34.3025C68.6649 35.2029 68.2892 35.9563 67.5146 36.5208C66.7609 37.0853 65.8812 37.3792 64.8779 37.3792C62.9529 37.3792 61.5715 36.4998 60.7549 34.7644L61.4875 34.3678C62.2412 35.8957 63.2679 36.6071 64.8779 36.6071C65.6315 36.6071 66.3222 36.3972 66.9289 35.9797C67.5355 35.5411 67.8506 34.9976 67.8506 34.3258C67.8506 32.9869 66.9919 32.4224 64.6259 31.8976C62.2179 31.3751 61.0885 30.6426 61.0885 28.8652C61.0885 27.9625 61.4642 27.23 62.2389 26.6655Z" fill="white"/>
<path d="M72.0016 26.6655C72.7762 26.101 73.6349 25.8281 74.5752 25.8281C76.3556 25.8281 77.6109 26.6026 78.3016 28.1724L77.5689 28.5689C76.9832 27.251 75.9776 26.6026 74.5332 26.6026C73.8426 26.6026 73.1939 26.8125 72.5872 27.23C71.9806 27.6476 71.6866 28.1934 71.6866 28.8419C71.6866 30.1808 72.5242 30.7033 74.5962 31.1232C77.2539 31.6876 78.4276 32.5251 78.4276 34.3025C78.4276 35.2029 78.0519 35.9563 77.2772 36.5208C76.5236 37.0853 75.6439 37.3792 74.6406 37.3792C72.7156 37.3792 71.3342 36.4998 70.5176 34.7644L71.2502 34.3678C72.0039 35.8957 73.0306 36.6071 74.6406 36.6071C75.3942 36.6071 76.0849 36.3972 76.6916 35.9797C77.2982 35.5411 77.6132 34.9976 77.6132 34.3258C77.6132 32.9869 76.7546 32.4224 74.3886 31.8976C71.9806 31.3751 70.8512 30.6426 70.8512 28.8652C70.8512 27.9625 71.2269 27.23 72.0016 26.6655Z" fill="white"/>
<path d="M90.7086 31.7506H81.0789C81.0999 33.0686 81.5386 34.1999 82.4182 35.1609C83.2979 36.1243 84.4272 36.6048 85.7876 36.6048C87.4839 36.6048 88.9282 35.7044 89.6819 34.3025L90.3936 34.762C89.5349 36.3529 87.7779 37.3769 85.7456 37.3769C84.1542 37.3769 82.8359 36.8124 81.7696 35.6834C80.7242 34.5334 80.1992 33.1735 80.1992 31.5827V31.5407C80.1992 30.0128 80.7219 28.6949 81.7486 27.5449C82.7962 26.3949 84.0726 25.8281 85.5799 25.8281C87.2972 25.8281 88.5736 26.3716 89.4322 27.4819C90.2909 28.5899 90.7086 29.9522 90.7086 31.5617V31.7506ZM89.8499 30.9972C89.7449 28.9888 88.5946 26.6026 85.5379 26.6026C84.3876 26.6026 83.3609 27.0411 82.4812 27.9415C81.6226 28.8209 81.1419 29.8449 81.0789 30.9972H89.8499Z" fill="white"/>
<path d="M93.8277 26.6655C94.6024 26.101 95.4611 25.8281 96.4014 25.8281C98.1817 25.8281 99.4371 26.6026 100.128 28.1724L99.3951 28.5689C98.8094 27.251 97.8037 26.6026 96.3594 26.6026C95.6687 26.6026 95.0201 26.8125 94.4134 27.23C93.8067 27.6476 93.5127 28.1934 93.5127 28.8419C93.5127 30.1808 94.3504 30.7033 96.4224 31.1232C99.0801 31.6876 100.254 32.5251 100.254 34.3025C100.254 35.2029 99.8781 35.9563 99.1034 36.5208C98.3498 37.0853 97.4701 37.3792 96.4667 37.3792C94.5417 37.3792 93.1604 36.4998 92.3438 34.7644L93.0764 34.3678C93.8301 35.8957 94.8567 36.6071 96.4667 36.6071C97.2204 36.6071 97.9111 36.3972 98.5177 35.9797C99.1244 35.5411 99.4394 34.9976 99.4394 34.3258C99.4394 32.9869 98.5807 32.4224 96.2147 31.8976C93.8067 31.3751 92.6774 30.6426 92.6774 28.8652C92.6774 27.9625 93.0531 27.23 93.8277 26.6655Z" fill="white"/>
<path d="M103.59 26.6655C104.365 26.101 105.224 25.8281 106.164 25.8281C107.944 25.8281 109.2 26.6026 109.89 28.1724L109.158 28.5689C108.572 27.251 107.566 26.6026 106.122 26.6026C105.431 26.6026 104.783 26.8125 104.176 27.23C103.569 27.6476 103.275 28.1934 103.275 28.8419C103.275 30.1808 104.113 30.7033 106.185 31.1232C108.843 31.6876 110.016 32.5251 110.016 34.3025C110.016 35.2029 109.641 35.9563 108.866 36.5208C108.112 37.0853 107.233 37.3792 106.229 37.3792C104.304 37.3792 102.923 36.4998 102.106 34.7644L102.839 34.3678C103.593 35.8957 104.619 36.6071 106.229 36.6071C106.983 36.6071 107.674 36.3972 108.28 35.9797C108.887 35.5411 109.202 34.9976 109.202 34.3258C109.202 32.9869 108.343 32.4224 105.977 31.8976C103.569 31.3751 102.44 30.6426 102.44 28.8652C102.44 27.9625 102.816 27.23 103.59 26.6655Z" fill="white"/>
<path d="M113.085 21.5566C113.421 21.2207 113.923 21.2207 114.235 21.5566C114.571 21.8692 114.571 22.415 114.235 22.7486C113.923 23.0635 113.419 23.0635 113.085 22.7276C112.772 22.394 112.772 21.8925 113.085 21.5566ZM114.091 26.0142V37.1874H113.253V26.0142H114.091Z" fill="white"/>
<path d="M125.457 27.1251C126.252 27.9835 126.649 29.0914 126.649 30.4724V37.1879H125.811V30.638C125.811 28.0651 124.43 26.6002 122.085 26.6002C120.977 26.6002 120.055 26.9991 119.28 27.7922C118.527 28.5666 118.149 29.572 118.149 30.7639V37.1879H117.332V26.0147H118.149V28.485C118.755 26.8731 120.347 25.8281 122.209 25.8281C123.592 25.8281 124.682 26.269 125.457 27.1251Z" fill="white"/>
<path d="M140 26.0194V37.1506C140 39.054 139.499 40.4559 138.472 41.3773C137.445 42.3197 136.127 42.7792 134.517 42.7792C131.838 42.7792 130.184 41.6292 129.097 39.3479L129.829 38.9304C130.268 39.8308 130.646 40.3953 131.379 41.0018C132.111 41.6502 133.159 41.9838 134.498 41.9838C137.366 41.9838 139.186 40.351 139.186 37.1926V34.0529C138.411 35.9143 136.612 37.2323 134.498 37.2323C132.886 37.2323 131.568 36.6888 130.583 35.5784C129.598 34.4705 129.097 33.1082 129.097 31.5197C129.097 29.9289 129.598 28.5899 130.604 27.4819C131.61 26.374 132.907 25.8281 134.498 25.8281C136.612 25.8281 138.414 27.0831 139.186 28.9468V26.0171H140V26.0194ZM139.226 31.501C139.226 30.1831 138.787 29.0331 137.907 28.0698C137.028 27.1064 135.898 26.6259 134.517 26.6259C133.157 26.6259 132.067 27.0854 131.211 28.0068C130.373 28.9282 129.955 30.0991 129.955 31.501V31.522C129.955 32.9239 130.375 34.0949 131.211 35.0373C132.069 35.9797 133.157 36.4392 134.517 36.4392C135.877 36.4392 137.009 35.9587 137.886 34.9953C138.787 34.0319 139.226 32.8819 139.226 31.543V31.501Z" fill="white"/>
</g>
<defs>
<radialGradient id="paint0_radial_266_2192" cx="0" cy="0" r="1" gradientUnits="userSpaceOnUse" gradientTransform="translate(12.4763 25.0146) scale(45.5247 45.5106)">
<stop/>
<stop offset="1" stop-color="#24B58F"/>
</radialGradient>
<radialGradient id="paint1_radial_266_2192" cx="0" cy="0" r="1" gradientUnits="userSpaceOnUse" gradientTransform="translate(12.3663 25.3324) scale(27.7487 27.7401)">
<stop stop-color="white"/>
<stop offset="0.0966" stop-color="#F8FDFB"/>
<stop offset="0.2408" stop-color="#E3F6F1"/>
<stop offset="0.4149" stop-color="#C2EAE0"/>
<stop offset="0.6123" stop-color="#94DBC8"/>
<stop offset="0.8261" stop-color="#59C7AA"/>
<stop offset="1" stop-color="#24B58F"/>
</radialGradient>
<clipPath id="clip0_266_2192">
<rect width="140" height="42.7778" fill="white"/>
</clipPath>
</defs>
</svg>
