<svg width="180" height="55" viewBox="0 0 180 55" fill="none" xmlns="http://www.w3.org/2000/svg">
<g clip-path="url(#clip0_114_706)">
<path d="M15.8999 32.1617V48.0568H45.5999C46.9199 48.0568 47.9999 46.9771 47.9999 45.6575V2.47084C47.9999 1.81105 47.7299 1.21123 47.2949 0.776367L15.8999 32.1617Z" fill="#24B58F"/>
<path d="M15.903 0.0717773H2.4C1.08 0.0717773 0 1.15144 0 2.47104V45.6577C0 46.3175 0.27 46.9173 0.705 47.3522L15.915 32.1469L15.903 0.0717773Z" fill="#24B58F"/>
<path d="M15.8999 32.1619L47.2949 0.776559C46.8599 0.341694 46.2599 0.0717773 45.5999 0.0717773H15.8999V32.1619Z" fill="url(#paint0_radial_114_706)"/>
<path d="M0.687012 47.3522C1.12201 47.7871 1.72201 48.057 2.38201 48.057H15.9L15.894 32.1499L0.687012 47.3522Z" fill="url(#paint1_radial_114_706)"/>
<path d="M72.768 2.96009C72.444 2.87911 72.069 2.85212 71.61 2.85212C69.78 2.85212 68.865 3.79383 68.865 5.70424V7.61465H72.687V10.4398H68.865V21.9802H65.637V10.4398H63V7.61465H65.637V5.59627C65.637 2.04537 67.764 0 71.289 0C71.775 0 72.258 0.080975 72.768 0.215933V2.96009Z" fill="white"/>
<path d="M86.5441 9.44121C88.0231 10.8658 88.749 12.6172 88.749 14.7136C88.749 16.8399 88.0231 18.6124 86.5441 20.0669C85.0891 21.4915 83.3131 22.2173 81.1891 22.2173C79.0891 22.2173 77.2861 21.4915 75.8071 20.0669C74.3281 18.6424 73.6021 16.8669 73.6021 14.7676C73.6021 12.6682 74.3551 10.8928 75.8341 9.46821C77.3131 8.04365 79.1161 7.31787 81.2161 7.31787C83.2891 7.31787 85.0651 8.01666 86.5441 9.44121ZM76.8841 14.7166C76.8841 15.9792 77.2891 17.0559 78.0961 17.9706C78.9031 18.8583 79.9531 19.3172 81.2161 19.3172C82.4821 19.3172 83.5321 18.8853 84.3121 17.9976C85.0921 17.1098 85.497 16.0332 85.497 14.7706C85.497 13.505 85.0951 12.4313 84.2851 11.5436C83.5051 10.6558 82.4551 10.224 81.1891 10.224C79.9261 10.224 78.8761 10.6558 78.0691 11.5436C77.2861 12.4013 76.8841 13.451 76.8841 14.7166Z" fill="white"/>
<path d="M92.8049 20.0969C91.3769 18.6724 90.6509 16.8969 90.6509 14.7706C90.6509 12.7522 91.3769 11.0037 92.8049 9.52519C94.2329 8.04665 96.0089 7.31787 98.1329 7.31787C101.364 7.31787 103.731 9.06633 104.592 11.6215L101.847 12.8602C101.229 11.1117 99.9899 10.224 98.1599 10.224C96.9749 10.224 95.9819 10.6558 95.1449 11.4896C94.3379 12.3233 93.9329 13.4 93.9329 14.7166C93.9329 16.0602 94.3379 17.1638 95.1449 18.0246C95.9519 18.8853 96.9749 19.3172 98.1869 19.3172C99.9899 19.3172 101.229 18.4294 101.901 16.654L104.7 17.8926C104.295 19.0502 103.515 20.0729 102.411 20.9337C101.307 21.7944 99.8819 22.2233 98.1329 22.2233C96.0089 22.2203 94.2329 21.5215 92.8049 20.0969Z" fill="white"/>
<path d="M110.214 7.61475V15.6583C110.214 17.8086 111.264 19.2362 113.388 19.2362C115.407 19.2362 116.697 17.7846 116.697 15.6043V7.61475H119.901V21.9803H116.778V20.0429C115.674 21.5214 114.222 22.2742 112.392 22.2742C108.921 22.2742 107.01 19.881 107.01 16.438V7.61475H110.214Z" fill="white"/>
<path d="M122.238 18.615L124.74 17.2145C125.52 18.747 126.651 19.5267 128.184 19.5267C129.396 19.5267 130.443 18.9089 130.443 17.9402C130.443 17.1065 129.447 16.4617 127.482 16.0568C125.895 15.7329 124.683 15.1691 123.903 14.3354C123.231 13.6096 122.88 12.7488 122.88 11.7262C122.88 10.4366 123.393 9.38688 124.44 8.55014C125.49 7.7164 126.702 7.31152 128.1 7.31152C130.683 7.31152 132.486 8.38819 133.482 10.5385L131.007 11.9361C130.362 10.6465 129.366 9.99869 127.992 9.99869C126.996 9.99869 125.973 10.6165 125.973 11.3993C125.973 12.341 126.78 12.8238 128.637 13.2287C131.895 13.9545 133.617 15.517 133.617 17.7483C133.617 19.0679 133.104 20.1416 132.111 20.9753C131.118 21.809 129.798 22.2139 128.181 22.2139C125.334 22.2199 123.342 21.0113 122.238 18.615Z" fill="white"/>
<path d="M135.699 18.615L138.201 17.2145C138.981 18.747 140.112 19.5267 141.645 19.5267C142.857 19.5267 143.907 18.9089 143.907 17.9402C143.907 17.1065 142.911 16.4617 140.946 16.0568C139.359 15.7329 138.147 15.1691 137.367 14.3354C136.695 13.6096 136.344 12.7488 136.344 11.7262C136.344 10.4366 136.857 9.38688 137.904 8.55014C138.951 7.7134 140.163 7.31152 141.564 7.31152C144.147 7.31152 145.95 8.38819 146.946 10.5385L144.471 11.9361C143.826 10.6465 142.83 9.99869 141.456 9.99869C140.46 9.99869 139.437 10.6165 139.437 11.3993C139.437 12.341 140.244 12.8238 142.101 13.2287C145.356 13.9545 147.078 15.517 147.078 17.7483C147.078 19.0679 146.568 20.1416 145.572 20.9753C144.576 21.809 143.256 22.2139 141.642 22.2139C138.795 22.2199 136.803 21.0113 135.699 18.615Z" fill="white"/>
<path d="M152.166 15.7392C152.193 16.8159 152.625 17.7036 153.459 18.4294C154.293 19.1281 155.262 19.479 156.366 19.479C158.169 19.479 159.462 18.7263 160.242 17.2477L162.555 18.7803C161.343 21.0146 159.003 22.2502 156.42 22.2502C154.293 22.2502 152.49 21.5514 151.038 20.1238C149.61 18.6993 148.884 16.8968 148.884 14.7705C148.884 12.6981 149.583 10.9497 150.957 9.49813C152.331 8.04658 154.053 7.3208 156.123 7.3208C158.304 7.3208 160.026 7.99259 161.262 9.36617C162.501 10.7397 163.119 12.5152 163.119 14.7465C163.119 15.1754 163.092 15.4993 163.065 15.7422H152.166V15.7392ZM152.328 13.3159H159.864C159.756 11.2976 158.169 10.062 156.123 10.062C154.158 10.062 152.622 11.3546 152.328 13.3159Z" fill="white"/>
<path d="M166.947 9.60311C168.267 8.09758 170.016 7.34181 172.14 7.34181C172.92 7.34181 173.754 7.53075 174.669 7.93263C175.611 8.30751 176.31 8.87434 176.796 9.65409V0.0810547H180V21.9773H176.877V19.743C176.364 20.5767 175.638 21.1945 174.642 21.5994C173.673 22.0013 172.812 22.1902 172.059 22.1902C170.04 22.1902 168.345 21.4644 166.998 19.9859C165.654 18.5074 164.979 16.7589 164.979 14.7675C164.982 12.8331 165.63 11.1116 166.947 9.60311ZM169.422 11.5405C168.642 12.4282 168.237 13.5049 168.237 14.7675C168.237 16.0301 168.639 17.1068 169.422 17.9945C170.229 18.8552 171.279 19.2871 172.545 19.2871C173.811 19.2871 174.861 18.8552 175.638 17.9945C176.445 17.1068 176.85 16.0301 176.85 14.7675C176.85 13.5019 176.445 12.4282 175.638 11.5405C174.831 10.6528 173.808 10.2209 172.545 10.2209C171.279 10.2239 170.229 10.6528 169.422 11.5405Z" fill="white"/>
<path d="M74.0608 47.817V44.641C72.9838 46.8213 70.8868 48.0569 68.5978 48.0569C67.2238 48.0569 66.0688 47.706 65.1538 47.0072C64.2388 46.2815 63.7798 45.2858 63.7798 43.9692C63.7798 42.5956 64.3438 41.5759 65.4478 40.9011C66.5788 40.2023 67.8958 39.8514 69.4048 39.8514H74.0608V38.8557C74.0608 35.9496 72.5008 34.2012 69.6748 34.2012C67.4698 34.2012 65.8798 35.1699 64.8838 37.1343L63.9418 36.5974C64.9108 34.5251 66.8758 33.2085 69.6478 33.2085C72.9838 33.2085 75.1378 35.2269 75.1378 38.7778V47.817H74.0608ZM74.0878 40.8231H69.4588C68.2468 40.8231 67.1968 41.0931 66.2548 41.6029C65.3398 42.1127 64.8838 42.8925 64.8838 43.9422C64.8838 45.9606 66.4438 47.0642 68.6248 47.0642C70.1578 47.0642 71.4508 46.6084 72.5008 45.6636C73.5508 44.7219 74.0878 43.4593 74.0878 41.9238V40.8231Z" fill="white"/>
<path d="M80.0218 34.2852C81.0178 33.5594 82.1218 33.2085 83.3308 33.2085C85.6198 33.2085 87.2338 34.2042 88.1218 36.2226L87.1798 36.7324C86.4268 35.0379 85.1338 34.2042 83.2768 34.2042C82.3888 34.2042 81.5548 34.4741 80.7748 35.0109C79.9948 35.5478 79.6168 36.2496 79.6168 37.0833C79.6168 38.8048 80.6938 39.4766 83.3578 40.0164C86.7748 40.7422 88.2838 41.8188 88.2838 44.1041C88.2838 45.2618 87.8008 46.2305 86.8048 46.9562C85.8358 47.682 84.7048 48.0599 83.4148 48.0599C80.9398 48.0599 79.1638 46.9293 78.1138 44.6979L79.0558 44.1881C80.0248 46.1525 81.3448 47.0672 83.4148 47.0672C84.3838 47.0672 85.2718 46.7973 86.0518 46.2605C86.8318 45.6966 87.2368 44.9979 87.2368 44.1341C87.2368 42.4127 86.1328 41.6869 83.0908 41.0121C79.9948 40.3403 78.5428 39.3986 78.5428 37.1133C78.5428 35.9526 79.0258 35.0109 80.0218 34.2852Z" fill="white"/>
<path d="M92.574 34.2852C93.57 33.5594 94.674 33.2085 95.883 33.2085C98.172 33.2085 99.786 34.2042 100.674 36.2226L99.732 36.7324C98.979 35.0379 97.686 34.2042 95.829 34.2042C94.941 34.2042 94.107 34.4741 93.327 35.0109C92.547 35.5478 92.169 36.2496 92.169 37.0833C92.169 38.8048 93.246 39.4766 95.91 40.0164C99.327 40.7422 100.836 41.8188 100.836 44.1041C100.836 45.2618 100.353 46.2305 99.357 46.9562C98.388 47.682 97.257 48.0599 95.967 48.0599C93.492 48.0599 91.716 46.9293 90.666 44.6979L91.608 44.1881C92.577 46.1525 93.897 47.0672 95.967 47.0672C96.936 47.0672 97.824 46.7973 98.604 46.2605C99.384 45.6966 99.789 44.9979 99.789 44.1341C99.789 42.4127 98.685 41.6869 95.643 41.0121C92.547 40.3403 91.095 39.3986 91.095 37.1133C91.095 35.9526 91.578 35.0109 92.574 34.2852Z" fill="white"/>
<path d="M116.625 40.8231H104.244C104.271 42.5176 104.835 43.9722 105.966 45.2078C107.097 46.4464 108.549 47.0642 110.298 47.0642C112.479 47.0642 114.336 45.9066 115.305 44.1041L116.22 44.6949C115.116 46.7403 112.857 48.0569 110.244 48.0569C108.198 48.0569 106.503 47.3311 105.132 45.8796C103.788 44.401 103.113 42.6526 103.113 40.6072V40.5532C103.113 38.5888 103.785 36.8944 105.105 35.4158C106.452 33.9373 108.093 33.2085 110.031 33.2085C112.239 33.2085 113.88 33.9073 114.984 35.3348C116.088 36.7594 116.625 38.5109 116.625 40.5802V40.8231ZM115.521 39.8544C115.386 37.2722 113.907 34.2042 109.977 34.2042C108.498 34.2042 107.178 34.768 106.047 35.9257C104.943 37.0563 104.325 38.3729 104.244 39.8544H115.521Z" fill="white"/>
<path d="M120.636 34.2852C121.632 33.5594 122.736 33.2085 123.945 33.2085C126.234 33.2085 127.848 34.2042 128.736 36.2226L127.794 36.7324C127.041 35.0379 125.748 34.2042 123.891 34.2042C123.003 34.2042 122.169 34.4741 121.389 35.0109C120.609 35.5478 120.231 36.2496 120.231 37.0833C120.231 38.8048 121.308 39.4766 123.972 40.0164C127.389 40.7422 128.898 41.8188 128.898 44.1041C128.898 45.2618 128.415 46.2305 127.419 46.9562C126.45 47.682 125.319 48.0599 124.029 48.0599C121.554 48.0599 119.778 46.9293 118.728 44.6979L119.67 44.1881C120.639 46.1525 121.959 47.0672 124.029 47.0672C124.998 47.0672 125.886 46.7973 126.666 46.2605C127.446 45.6966 127.851 44.9979 127.851 44.1341C127.851 42.4127 126.747 41.6869 123.705 41.0121C120.609 40.3403 119.157 39.3986 119.157 37.1133C119.157 35.9526 119.64 35.0109 120.636 34.2852Z" fill="white"/>
<path d="M133.188 34.2852C134.184 33.5594 135.288 33.2085 136.497 33.2085C138.786 33.2085 140.4 34.2042 141.288 36.2226L140.346 36.7324C139.593 35.0379 138.3 34.2042 136.443 34.2042C135.555 34.2042 134.721 34.4741 133.941 35.0109C133.161 35.5478 132.783 36.2496 132.783 37.0833C132.783 38.8048 133.86 39.4766 136.524 40.0164C139.941 40.7422 141.45 41.8188 141.45 44.1041C141.45 45.2618 140.967 46.2305 139.971 46.9562C139.002 47.682 137.871 48.0599 136.581 48.0599C134.106 48.0599 132.33 46.9293 131.28 44.6979L132.222 44.1881C133.191 46.1525 134.511 47.0672 136.581 47.0672C137.55 47.0672 138.438 46.7973 139.218 46.2605C139.998 45.6966 140.403 44.9979 140.403 44.1341C140.403 42.4127 139.299 41.6869 136.257 41.0121C133.161 40.3403 131.709 39.3986 131.709 37.1133C131.709 35.9526 132.192 35.0109 133.188 34.2852Z" fill="white"/>
<path d="M145.395 27.7204C145.827 27.2885 146.472 27.2885 146.874 27.7204C147.306 28.1223 147.306 28.824 146.874 29.2529C146.472 29.6578 145.824 29.6578 145.395 29.2259C144.993 28.7971 144.993 28.1523 145.395 27.7204ZM146.688 33.4516V47.8172H145.611V33.4516H146.688Z" fill="white"/>
<path d="M161.301 34.876C162.324 35.9796 162.834 37.4042 162.834 39.1796V47.814H161.757V39.3926C161.757 36.0846 159.981 34.2012 156.966 34.2012C155.541 34.2012 154.356 34.714 153.36 35.7337C152.391 36.7294 151.905 38.022 151.905 39.5545V47.814H150.855V33.4484H151.905V36.6244C152.685 34.5521 154.731 33.2085 157.125 33.2085C158.904 33.2085 160.305 33.7753 161.301 34.876Z" fill="white"/>
<path d="M180 33.4515V47.7631C180 50.2103 179.355 52.0128 178.035 53.1974C176.715 54.409 175.02 54.9998 172.95 54.9998C169.506 54.9998 167.379 53.5213 165.981 50.5882L166.923 50.0514C167.487 51.209 167.973 51.9348 168.915 52.7145C169.857 53.5483 171.204 53.9771 172.926 53.9771C176.613 53.9771 178.953 51.8778 178.953 47.8171V43.7803C177.957 46.1736 175.644 47.868 172.926 47.868C170.853 47.868 169.158 47.1693 167.892 45.7417C166.626 44.3171 165.981 42.5657 165.981 40.5233C165.981 38.4779 166.626 36.7565 167.919 35.3319C169.212 33.9073 170.88 33.2056 172.926 33.2056C175.644 33.2056 177.96 34.8191 178.953 37.2153V33.4485H180V33.4515ZM179.004 40.4993C179.004 38.8048 178.44 37.3263 177.309 36.0877C176.178 34.8491 174.726 34.2312 172.95 34.2312C171.201 34.2312 169.8 34.8221 168.699 36.0067C167.622 37.1913 167.085 38.6969 167.085 40.4993V40.5263C167.085 42.3287 167.625 43.8343 168.699 45.0459C169.803 46.2575 171.201 46.8484 172.95 46.8484C174.699 46.8484 176.154 46.2305 177.282 44.9919C178.44 43.7533 179.004 42.2748 179.004 40.5533V40.4993Z" fill="white"/>
</g>
<defs>
<radialGradient id="paint0_radial_114_706" cx="0" cy="0" r="1" gradientUnits="userSpaceOnUse" gradientTransform="translate(16.0414 32.163) scale(58.5317 58.5136)">
<stop/>
<stop offset="1" stop-color="#24B58F"/>
</radialGradient>
<radialGradient id="paint1_radial_114_706" cx="0" cy="0" r="1" gradientUnits="userSpaceOnUse" gradientTransform="translate(15.8997 32.5673) scale(35.6769 35.6658)">
<stop stop-color="white"/>
<stop offset="0.0966" stop-color="#F8FDFB"/>
<stop offset="0.2408" stop-color="#E3F6F1"/>
<stop offset="0.4149" stop-color="#C2EAE0"/>
<stop offset="0.6123" stop-color="#94DBC8"/>
<stop offset="0.8261" stop-color="#59C7AA"/>
<stop offset="1" stop-color="#24B58F"/>
</radialGradient>
<clipPath id="clip0_114_706">
<rect width="180" height="55" fill="white"/>
</clipPath>
</defs>
</svg>
