<svg width="94" height="77" viewBox="0 0 94 77" fill="none" xmlns="http://www.w3.org/2000/svg">
<g clip-path="url(#clip0_114_764)">
<path d="M23.0322 19.9975C29.4763 8.68926 41.616 1.03955 55.5851 1.03955C76.2476 1.03955 93.0022 17.7941 93.0022 38.4566C93.0022 59.1192 76.2476 75.8737 55.5851 75.8737C41.616 75.8737 29.4347 68.224 23.0322 56.8741" stroke="white" stroke-linecap="round" stroke-linejoin="round"/>
<path d="M8.93848 29.3101H33.0517" stroke="white" stroke-linecap="round" stroke-linejoin="round"/>
<path d="M1.03955 38.4565H25.1528" stroke="white" stroke-linecap="round" stroke-linejoin="round"/>
<path d="M8.93848 47.561H33.0517" stroke="white" stroke-linecap="round" stroke-linejoin="round"/>
<path d="M55.5852 44.3599C58.8457 44.3599 61.4888 41.7168 61.4888 38.4563C61.4888 35.1959 58.8457 32.5527 55.5852 32.5527C52.3248 32.5527 49.6816 35.1959 49.6816 38.4563C49.6816 41.7168 52.3248 44.3599 55.5852 44.3599Z" stroke="white" stroke-linecap="round" stroke-linejoin="round"/>
<path d="M59.9087 34.1325L73.7946 20.2051" stroke="white" stroke-linecap="round" stroke-linejoin="round"/>
</g>
<defs>
<clipPath id="clip0_114_764">
<rect width="94" height="76.9129" fill="white"/>
</clipPath>
</defs>
</svg>
