<?xml version="1.0" standalone="no"?>
<!DOCTYPE svg PUBLIC "-//W3C//DTD SVG 20010904//EN"
 "http://www.w3.org/TR/2001/REC-SVG-20010904/DTD/svg10.dtd">
<svg version="1.0" xmlns="http://www.w3.org/2000/svg"
 width="300.000000pt" height="300.000000pt" viewBox="0 0 300.000000 300.000000"
 preserveAspectRatio="xMidYMid meet">
<metadata>
Created by potrace 1.14, written by Peter Selinger 2001-2017
</metadata>
<g transform="translate(0.000000,300.000000) scale(0.100000,-0.100000)"
fill="#000000" stroke="none">
<path d="M81 2981 c-18 -10 -44 -35 -57 -57 l-24 -39 0 -1379 0 -1380 21 -43
c14 -29 33 -50 58 -62 35 -18 90 -19 1423 -19 l1387 0 40 26 c77 50 72 -67 69
1487 -3 1159 -5 1393 -17 1410 -7 11 -27 31 -44 45 l-31 25 -1396 2 c-1329 2
-1397 1 -1429 -16z"/>
</g>
</svg>
